<svg width="122" height="122" viewBox="0 0 122 122" fill="none" xmlns="http://www.w3.org/2000/svg">
<path fill-rule="evenodd" clip-rule="evenodd" d="M92.4062 1C109.75 1 121 12.25 121 29.5938V92.4062C121 109.75 109.75 121 92.4062 121H29.5938C12.25 121 1 109.75 1 92.4062V29.5938C1 12.25 12.25 1 29.5938 1H92.4062Z" fill="white"/>
<path fill-rule="evenodd" clip-rule="evenodd" d="M92.4062 1C109.75 1 121 12.25 121 29.5938V92.4062C121 109.75 109.75 121 92.4062 121H29.5938C12.25 121 1 109.75 1 92.4062V29.5938C1 12.25 12.25 1 29.5938 1H92.4062Z" stroke="#A4A4A4" stroke-width="0.5"/>
<path fill-rule="evenodd" clip-rule="evenodd" d="M61 105C85.3005 105 105 85.3005 105 61C105 36.6995 85.3005 17 61 17C36.6995 17 17 36.6995 17 61C17 85.3005 36.6995 105 61 105Z" fill="#F50057"/>
<mask id="mask0" mask-type="alpha" maskUnits="userSpaceOnUse" x="17" y="17" width="88" height="88">
<path fill-rule="evenodd" clip-rule="evenodd" d="M61 105C85.3005 105 105 85.3005 105 61C105 36.6995 85.3005 17 61 17C36.6995 17 17 36.6995 17 61C17 85.3005 36.6995 105 61 105Z" fill="white"/>
</mask>
<g mask="url(#mask0)">
<path d="M61.3431 48.7019C47.4686 67.9814 44 93.2857 44 103.528L61.3431 121L110 93.8882V28.8199L96.9927 24C90.8905 24.2008 75.2175 29.4224 61.3431 48.7019Z" fill="#E80052"/>
<path d="M52.2264 88.9C53.3962 90.0625 56.1258 92 59.2453 92C69.7736 92 72.1132 84.25 72.5031 78.05C73.283 69.1375 75.6226 69.525 76.7925 69.525C79.522 69.525 80.3019 71.075 80.3019 73.7875C77.9623 75.3375 76.4025 77.6625 76.4025 80.375C76.4025 84.6375 79.9119 88.125 84.2013 88.125C88.4906 88.125 92 84.6375 92 80.375C92 76.1125 88.4906 72.625 84.2013 72.625C83.8113 72.625 83.8113 72.625 83.4214 72.625C82.6415 69.1375 80.6918 65.65 76.4025 65.65C70.1635 65.65 68.6038 71.075 68.2138 76.8875C67.8239 85.025 65.0943 88.125 59.2453 88.125C57.6855 88.125 56.1258 87.35 55.3459 86.575C53.0063 84.6375 53.3962 77.6625 53.3962 77.6625C61.195 77.6625 68.9937 70.6875 71.7233 59.0625L70.9434 58.675C72.1132 54.025 72.8931 48.6 72.8931 44.725C72.8931 40.4625 71.7233 37.3625 68.9937 35.0375C66.2642 32.7125 63.1447 31.9375 60.805 31.9375C60.0252 30.775 58.8553 30 57.2956 30C55.3459 30 53.3962 31.55 53.3962 33.875C53.3962 36.2 54.956 37.75 57.2956 37.75C58.8553 37.75 60.0252 36.975 60.4151 35.8125C62.3648 35.8125 64.3145 36.5875 66.2642 38.1375C68.2138 39.6875 68.9937 41.625 68.9937 44.725C68.9937 48.2125 68.2138 53.25 67.044 58.2875L66.2642 57.9C65.0943 62.1625 61.195 71.85 53.3962 71.85H49.4969C41.6981 71.85 37.7987 62.1625 36.6289 57.9L35.8491 58.2875C34.6792 53.25 33.8994 48.2125 33.8994 44.725C33.8994 41.625 34.6792 39.6875 36.6289 38.1375C38.1887 36.5875 40.5283 36.2 42.478 35.8125C42.8679 36.975 44.0377 37.75 45.5975 37.75C47.9371 37.75 49.4969 36.2 49.4969 33.875C49.4969 31.55 47.9371 30 45.5975 30C44.0377 30 42.8679 30.775 42.0881 31.9375C39.7484 31.9375 36.6289 32.7125 33.8994 35.0375C31.1698 37.3625 30 40.4625 30 44.725C30 48.6 30.7799 54.025 31.9497 59.0625L31.1698 59.45C33.8994 70.6875 41.6981 77.6625 49.4969 77.6625C49.4969 77.6625 49.1069 86.1875 52.2264 88.9V88.9ZM84.5912 84.25C82.2516 84.25 80.6918 82.7 80.6918 80.375C80.6918 78.05 82.2516 76.5 84.5912 76.5C86.9308 76.5 88.4906 78.05 88.4906 80.375C88.4906 82.7 86.5409 84.25 84.5912 84.25Z" fill="white"/>
<circle cx="44" cy="47" r="3" fill="white"/>
<circle cx="61" cy="47" r="3" fill="white"/>
<path d="M42 62H47L50.5 56V66.5L53.5 59.5L55 62H61.5" stroke="white"/>
</g>
</svg>
