<svg width="66" height="27" viewBox="0 0 66 27" fill="none" xmlns="http://www.w3.org/2000/svg">
<path d="M61.7427 0H4.25725C1.90604 0 0 1.8594 0 4.15309V4.15555C0 6.44923 1.90604 8.30864 4.25725 8.30864H61.7427C64.094 8.30864 66 6.44923 66 4.15555V4.15309C66 1.8594 64.094 0 61.7427 0Z" fill="#292685"/>
<path d="M36.1942 18.6913H4.25725C1.90604 18.6913 0 20.5507 0 22.8444V22.8469C0 25.1406 1.90604 27 4.25725 27H36.1942C38.5454 27 40.4514 25.1406 40.4514 22.8469V22.8444C40.4514 20.5507 38.5454 18.6913 36.1942 18.6913Z" fill="#292685"/>
</svg>
